<svg xmlns="http://www.w3.org/2000/svg" width="23.642" height="20.885" viewBox="0 0 23.642 20.885">
  <g id="グループ_3791" data-name="グループ 3791" transform="translate(-350.676 -348.871)">
    <path id="パス_3737" data-name="パス 3737" d="M361.157,349.645l-10.272,17.791a1.547,1.547,0,0,0,1.34,2.32h20.543a1.547,1.547,0,0,0,1.34-2.32l-10.272-17.791A1.547,1.547,0,0,0,361.157,349.645Z" transform="translate(0 0)" fill="#fcd225"/>
    <g id="グループ_3790" data-name="グループ 3790" transform="translate(360.365 354.45)">
      <g id="グループ_3788" data-name="グループ 3788" transform="translate(0.38 0)">
        <path id="パス_3738" data-name="パス 3738" d="M909.181,657.667h1.294a1.277,1.277,0,0,1,1.1,1.475l-.374,5.442a1.227,1.227,0,0,1-1.1,1.246h-.559a1.227,1.227,0,0,1-1.1-1.25l-.361-5.442A1.277,1.277,0,0,1,909.181,657.667Z" transform="translate(-908.077 -657.667)" fill="#1d1e20"/>
      </g>
      <g id="グループ_3789" data-name="グループ 3789" transform="translate(0 8.911)">
        <circle id="楕円形_330" data-name="楕円形 330" cx="1.507" cy="1.507" r="1.507" transform="translate(0 2.131) rotate(-45)" fill="#1d1e20"/>
      </g>
    </g>
  </g>
</svg>
